<svg version="1.1" xmlns="http://www.w3.org/2000/svg" xmlns:xlink="http://www.w3.org/1999/xlink" width="619.10666" height="486.80186" viewBox="0,0,619.10666,486.80186"><g transform="translate(71,59.89391)"><g data-paper-data="{&quot;isPaintingLayer&quot;:true}" fill="#000000" fill-rule="nonzero" stroke="none" stroke-width="0.5" stroke-linecap="butt" stroke-linejoin="miter" stroke-miterlimit="10" stroke-dasharray="" stroke-dashoffset="0" style="mix-blend-mode: normal"><path d="M-65.22577,-46.05812c0.98344,-0.51346 1.97086,-0.93266 2.81531,-1.2702c5.84024,-2.33443 12.42895,-2.36539 18.58228,-3.15005c6.19095,-0.78946 12.06173,-2.01285 18.32818,-2.02163c13.07209,0.00353 25.86178,-2.23411 38.8537,-2.99572c4.98872,-0.29245 10.02379,0.23455 15.01527,-0.00085c6.31576,-0.29786 12.62984,-1.45105 18.93037,-1.99537c9.377,-0.81011 18.81606,-1.01796 28.22047,-1.05349c6.66099,-0.02371 13.25149,-0.74573 19.90219,-0.95336c27.342,-0.8536 54.86888,-0.07075 82.22474,0.0112c18.37818,0.05506 36.78456,0.8335 55.119,2.18362c15.95543,1.17494 31.78881,2.76749 47.8132,2.83404c34.87629,0.14827 69.77403,1.60735 104.60336,3.48951c10.02865,0.54194 19.93554,1.83013 29.93885,2.6172c6.65323,0.52348 13.36917,0.43407 20.01258,1.06656c8.35716,0.79565 16.6711,2.37246 24.91264,3.91804c5.95173,1.11616 12.21843,1.52967 18.08597,2.95991c2.91513,0.71058 5.62235,2.09784 8.43016,3.15572c5.37801,3.05561 9.94708,6.27139 14.67259,10.26843c1.48508,1.25615 3.43772,2.12728 4.42628,3.80243c1.6795,2.84596 1.34567,8.0546 1.33864,11.19212c-0.01466,6.54375 -2.66798,13.09922 -4.05164,19.5055c-3.00545,13.91505 -3.41097,28.22449 -2.70054,42.38837c0.82137,16.42748 3.0153,32.51655 4.73921,48.85175c1.1124,10.54077 1.08589,21.3215 2.96761,31.78027c1.08124,6.00962 3.35537,12.04688 4.98617,17.93331c2.9215,17.41787 6.88263,34.61628 11.21816,51.74332c1.22907,4.8553 3.0388,9.58234 4.16968,14.46123c2.58303,11.1438 4.2547,22.59658 6.61458,33.80654c4.15897,18.63958 9.85063,37.24703 12.04197,56.2581c1.60715,13.94297 1.0148,28.26774 1.0148,42.27163c0,11.1268 -0.43066,21.8314 -2.93972,32.69019c-1.0776,4.66369 -2.19096,10.11948 -4.32956,14.43848c-4.45235,8.99173 -13.26532,16.78684 -22.18607,21.14261c-2.10175,1.02623 -5.51171,1.54833 -7.61936,2.24602c-1.68288,0.55707 -3.21962,1.56412 -4.95251,1.93759c-2.67634,0.5768 -5.49592,0.38625 -8.1397,1.0975c-8.99997,3.55398 -18.57276,3.98405 -28.13393,4.94016c-24.15397,2.4154 -48.9284,1.00744 -73.19913,1.00744c-33.00574,0 -66.01148,0.00005 -99.01723,-0.00001c-35.01189,-0.00006 -69.97875,-0.99999 -104.98277,-0.99999c-35,0 -70,0 -105,0c-34.63292,0 -69.63154,1.46126 -104.17812,-1.00635c-4.655,-0.3325 -9.89359,-0.09821 -14.44305,-1.07205c-2.76063,-0.59093 -5.14895,-2.3174 -7.71208,-3.50087c-3.4611,-1.59809 -6.85108,-2.72315 -9.36785,-5.86829c-3.92082,-4.89973 -1.80676,-8.44957 -3.15483,-13.75166c-0.42371,-1.66651 -1.34079,-3.20228 -1.61178,-4.90032c-0.9691,-6.07247 0.47589,-12.61416 0.97624,-18.60666c0.3841,-4.60021 -0.14429,-9.34506 0.08932,-13.96122c0.23523,-4.64825 0.90524,-9.16885 0.90216,-13.83258c0,-33.66667 0,-67.33333 0,-101c0,-33.68472 0.00013,-67.36943 -0.00029,-101.05415c-0.00457,-16.57997 0.59625,-33.32037 -0.17447,-49.88358c-0.84968,-18.26011 -4.064,-36.17782 -7.08473,-54.16424c-3.75552,-19.3995 -8.40051,-38.98494 -10.72495,-58.61947c-0.66914,-5.65219 -0.90263,-11.42279 -0.98137,-17.18303c-1.0342,-0.70756 -1.0342,-2.09554 -1.0342,-2.09554l0.07464,-2.60634c0.34654,-1.28244 0.46079,-2.65691 0.92238,-3.89377c0.00118,-1.17012 0.00297,-2.33712 0.00297,-3.49989c0,0 0,-2.5 2.5,-2.5c1.37837,0 1.99678,0.75996 2.27423,1.44188z"/></g></g></svg>