<svg version="1.1" xmlns="http://www.w3.org/2000/svg" xmlns:xlink="http://www.w3.org/1999/xlink" width="103.26877" height="77.75" viewBox="0,0,103.26877,77.75"><g transform="translate(-188.76214,-112.75)"><g data-paper-data="{&quot;isPaintingLayer&quot;:true}" fill="#fff700" fill-rule="nonzero" stroke="none" stroke-width="0.5" stroke-linecap="butt" stroke-linejoin="miter" stroke-miterlimit="10" stroke-dasharray="" stroke-dashoffset="0" style="mix-blend-mode: normal"><path d="M286.22267,171.9782c0.69877,-0.97524 0.39365,-5.62729 0.37956,-5.87449c-0.1534,-2.69099 -0.58726,-5.36831 -1.15545,-8.0031c-1.94715,-9.08535 -4.62896,-17.52373 -7.6826,-26.27806c-0.72662,-2.08312 -2.73316,-5.78813 -3.10037,-8.78909c-0.51019,0.7708 -1.09576,1.50613 -1.52465,2.32122c-1.2303,2.33808 -2.02519,4.91429 -2.55726,7.50218c-1.57289,7.65023 -1.6231,15.67918 0.68478,23.16525c0,0 0.12117,0.39812 0.1022,0.91894c6.2626,4.59253 11.16193,12.81329 8.12696,19.79582c2.60774,-1.14487 5.1655,-2.57961 6.72682,-4.75865zM268.71448,123.02612c0.50821,-0.96559 4.37394,-8.51452 7.12943,-7.48175c2.16605,0.81185 4.37208,7.88887 5.14577,10.14429c3.58281,10.44449 7.02737,20.54655 9.34607,31.36408c1.0105,4.7414 3.1446,12.98948 0.19157,17.46906c-3.04409,4.61772 -8.84537,6.68629 -13.65925,8.67939c-6.87009,2.84443 -13.689,5.65577 -20.96318,7.242l-3.79525,-1.15867c0,0 -0.17899,-0.07955 -0.41451,-0.24423c-0.7403,0.7097 -1.82014,0.7097 -1.82014,0.7097c-1.58184,-0.00253 -3.12135,-0.12803 -4.64262,-0.3128c-0.55528,0.11881 -1.10984,0.24209 -1.66358,0.37045l-0.05568,-0.00343l0.00259,0.01391l-3.38373,0.63043c-0.16372,0.03372 -0.33328,0.05144 -0.50698,0.05144c-1.29804,0 -2.36503,-0.98926 -2.48815,-2.25498c-0.81082,-0.10252 -1.62855,-0.18987 -2.45676,-0.25263c-12.49519,-0.94678 -24.54489,-1.07993 -35.59068,-8.09827c-6.70927,-4.26298 -14.64217,-13.10615 -7.54176,-20.85023c1.15056,-1.25486 2.75901,-1.99542 4.13851,-2.99313c5.2699,-2.06835 10.62917,-3.34589 16.04231,-4.49594c1.95586,-11.11313 2.39662,-21.91774 2.39653,-33.30481v-3c0,-1.38071 1.11929,-2.5 2.5,-2.5c0.83867,0 1.58089,0.41297 2.03439,1.04665l2.73162,3.72494l-0.02794,0.02049c0.06716,0.08047 0.13315,0.16206 0.19789,0.24484c0.39353,0.50322 3.4874,8.93794 3.75924,9.66809c2.13653,5.73848 4.52113,11.55109 8.01464,16.61828c0.31527,0.45729 0.63162,0.92011 0.9517,1.38339c2.07925,-1.06467 3.95884,-2.40726 5.40417,-4.1574c3.76401,-4.55781 4.43259,-10.50807 4.43736,-16.14377l-0.23733,-2.37331c-0.01041,-0.09264 -0.01575,-0.18681 -0.01575,-0.28222c0,-1.38071 1.11929,-2.5 2.5,-2.5c1.21772,0 2.23209,0.87062 2.45461,2.02335l0.73989,3.45283l-0.0383,0.00821c0.02435,0.05944 0.04805,0.11921 0.07107,0.17933c0.47548,1.24156 0.16031,8.22985 0.26166,9.35136c0.40751,4.50924 2.29028,9.08794 4.62959,12.92779c2.67613,4.39273 6.84877,4.61715 11.06628,5.98894c-2.23751,-10.09154 -1.6286,-21.81751 3.15467,-30.90569zM220.6348,129.20057c-0.48813,-1.30943 -1.05442,-2.57945 -1.57716,-3.84777c-0.17303,8.46756 -0.71838,16.71837 -2.07236,25.10602c2.10079,-0.43869 4.20791,-0.89028 6.3193,-1.39288c2.02099,-0.48108 4.22075,-1.01974 6.38794,-1.73275c-3.77757,-5.66469 -6.62762,-11.61379 -9.05772,-18.13263z"/></g></g></svg>